<mxfile host="app.diagrams.net" modified="2024-03-11T11:56:23.793Z" agent="Mozilla/5.0 (Windows NT 10.0; Win64; x64) AppleWebKit/537.36 (KHTML, like Gecko) Chrome/122.0.0.0 Safari/537.36" version="24.0.4" etag="foar4pzpW29aBfGq4vKQ" type="github">
  <diagram name="Page-1" id="HXzNKilaUo-stDFMMNqX">
    <mxGraphModel>
      <root>
        <mxCell id="0" />
        <mxCell id="1" parent="0" />
      </root>
    </mxGraphModel>
  </diagram>
</mxfile>
